<?xml version="1.0" standalone="no"?>
<!DOCTYPE svg PUBLIC "-//W3C//DTD SVG 1.1//EN"
  "http://www.w3.org/Graphics/SVG/1.1/DTD/svg11.dtd">
<svg width="131mm" height="91.99999999999997mm" viewBox="-60 -35.99999999999999 131 91.99999999999997" xmlns="http://www.w3.org/2000/svg" version="1.1">
	<title>svgOutput</title>
	<desc>made with tinkercad</desc>
<path d="M 2 54.999999999999986 L -59 54.999999999999986 L -59 54.75299835205077 L -59 53.749999999999986 L -59 47.748001098632805 L -59 45.752998352050774 L -59 -3.996999979019164 L -59 -4.252999782562255 L -59 -11.503000259399412 L -59 -33.99999999999999 L -59 -34.24999999999999 L -59 -34.99999999999999 L -57.5 -34.99999999999999 L 0.5 -34.99999999999999 L 2 -34.99999999999999 L 2 -34.24999999999999 L 2 -33.99999999999999 L 2 -12.25300025939941 L 2 -6.498000144958494 L 2 -4.748000144958495 L 2 -4.252999782562255 L 2 45.752998352050774 L 2 47.748001098632805 L 2 52.75299835205077 L 2 53.749999999999986 L 2 54.75299835205077 L 2 54.999999999999986 M 29.99799919128418 -34.99999999999999 L 29.99799919128418 -28.997999191284173 L 48.00299835205078 -28.997999191284173 L 48.00299835205078 -34.99999999999999 L 62 -34.99999999999999 L 62.99800109863281 -34.99999999999999 L 65.00299835205078 -34.99999999999999 L 68.50299835205078 -34.99999999999999 L 70 -34.99999999999999 L 70 54.999999999999986 L 68.50299835205078 54.999999999999986 L 62.99800109863281 54.999999999999986 L 62 54.999999999999986 L 48.00299835205078 54.999999999999986 L 29.99799919128418 54.999999999999986 L 16 54.999999999999986 L 13.998000144958496 54.999999999999986 L 10.496999740600586 54.999999999999986 L 9 54.999999999999986 L 9 53.749999999999986 L 9 25.003000259399407 L 9 -33.99999999999999 L 9 -34.24999999999999 L 9 -34.99999999999999 L 10.496999740600586 -34.99999999999999 L 13.998000144958496 -34.99999999999999 L 16 -34.99999999999999 L 16.003000259399414 -34.99999999999999 L 29.99799919128418 -34.99999999999999 M -8.378000259399414 -3.996999979019164 L -8.378000259399414 45.752998352050774 L -3.378000020980835 45.752998352050774 L -0.996999979019165 45.752998352050774 L -0.996999979019165 -4.252999782562255 L -8.378000259399414 -4.252999782562255 L -8.378000259399414 -3.996999979019164 M -2.0480000972747803 52.72541046142577 L -1.875 52.75299835205077 L -1.4110000133514404 52.67900085449217 L -0.9919999837875366 52.46599960327147 L -0.6589999794960022 52.132999420166 L -0.44600000977516174 51.71400070190428 L -0.3720000088214874 51.249999999999986 L -0.44600000977516174 50.78599929809569 L -0.6589999794960022 50.36700057983397 L -0.9919999837875366 50.0340003967285 L -1.4110000133514404 49.8209991455078 L -1.875 49.7480010986328 L -2.0480000972747803 49.77521896362303 L -2.3389999866485596 49.8209991455078 L -2.757999897003174 50.0340003967285 L -3.0910000801086426 50.36700057983397 L -3.303999900817871 50.78599929809569 L -3.378000020980835 51.249999999999986 L -3.303999900817871 51.71400070190428 L -3.0910000801086426 52.132999420166 L -2.757999897003174 52.46599960327147 L -2.3389999866485596 52.67900085449217 L -2.0480000972747803 52.72541046142577 M -53.44599914550781 51.71400070190428 L -53.37300109863281 51.249999999999986 L -53.38086700439453 51.20000076293944 L -53.44599914550781 50.78599929809569 L -53.659000396728516 50.36700057983397 L -53.992000579833984 50.0340003967285 L -54.4109992980957 49.8209991455078 L -54.875 49.7480010986328 L -55.3390007019043 49.8209991455078 L -55.757999420166016 50.0340003967285 L -56.090999603271484 50.36700057983397 L -56.30400085449219 50.78599929809569 L -56.370025634765625 51.20000076293944 L -56.37799835205078 51.249999999999986 L -56.30400085449219 51.71400070190428 L -56.090999603271484 52.132999420166 L -55.757999420166016 52.46599960327147 L -55.3390007019043 52.67900085449217 L -54.875 52.75299835205077 L -54.4109992980957 52.67900085449217 L -53.992000579833984 52.46599960327147 L -53.659000396728516 52.132999420166 L -53.44599914550781 51.71400070190428 M -53.69599914550781 -7.5359997749328596 L -53.62300109863281 -7.999999999999998 L -53.65320587158203 -8.19200038909912 L -53.69599914550781 -8.463999748229979 L -53.909000396728516 -8.88300037384033 L -54.242000579833984 -9.215999603271483 L -54.6609992980957 -9.42899990081787 L -55.125 -9.503000259399412 L -55.5890007019043 -9.42899990081787 L -56.007999420166016 -9.215999603271483 L -56.340999603271484 -8.88300037384033 L -56.55400085449219 -8.463999748229979 L -56.59737777709961 -8.19200038909912 L -56.62799835205078 -7.999999999999998 L -56.55400085449219 -7.5359997749328596 L -56.340999603271484 -7.117000102996824 L -56.007999420166016 -6.783999919891356 L -55.5890007019043 -6.571000099182127 L -55.125 -6.498000144958494 L -54.6609992980957 -6.571000099182127 L -54.242000579833984 -6.783999919891356 L -53.909000396728516 -7.117000102996824 L -53.69599914550781 -7.5359997749328596 M -1.1460000276565552 -7.5359997749328596 L -1.0729999542236328 -7.999999999999998 L -1.1032068729400635 -8.19200038909912 L -1.1460000276565552 -8.463999748229979 L -1.3589999675750732 -8.88300037384033 L -1.6920000314712524 -9.215999603271483 L -2.1110000610351562 -9.42899990081787 L -2.575000047683716 -9.503000259399412 L -3.0390000343322754 -9.42899990081787 L -3.4579999446868896 -9.215999603271483 L -3.7909998893737793 -8.88300037384033 L -4.004000186920166 -8.463999748229979 L -4.047379493713379 -8.19200038909912 L -4.078000068664551 -7.999999999999998 L -4.004000186920166 -7.5359997749328596 L -3.7909998893737793 -7.117000102996824 L -3.4579999446868896 -6.783999919891356 L -3.0390000343322754 -6.571000099182127 L -2.575000047683716 -6.498000144958494 L -2.1110000610351562 -6.571000099182127 L -1.6920000314712524 -6.783999919891356 L -1.3589999675750732 -7.117000102996824 L -1.1460000276565552 -7.5359997749328596 M 16 28.218599319458 L 16.003000259399414 28.200000762939446 L 16 28.18140029907226 L 15.95300006866455 27.88999938964843 L 15.810999870300293 27.61100006103515 L 15.58899974822998 27.388999938964837 L 15.3100004196167 27.24699974060058 L 15 27.197999954223626 L 14.6899995803833 27.24699974060058 L 14.41100025177002 27.388999938964837 L 14.189000129699707 27.61100006103515 L 14.04699993133545 27.88999938964843 L 13.998000144958496 28.200000762939446 L 14.04699993133545 28.51000022888183 L 14.129451751708984 28.67200088500976 L 14.189000129699707 28.78899955749511 L 14.41100025177002 29.010999679565423 L 14.6899995803833 29.15299987792968 L 15 29.202999114990227 L 15.3100004196167 29.15299987792968 L 15.58899974822998 29.010999679565423 L 15.810999870300293 28.78899955749511 L 15.870548248291016 28.67200088500976 L 15.95300006866455 28.51000022888183 L 16 28.218599319458 M 16 -29.781400680541985 L 16.003000259399414 -29.79999923706054 L 16 -29.818599700927727 L 15.95300006866455 -30.110000610351555 L 15.810999870300293 -30.388999938964837 L 15.58899974822998 -30.61100006103515 L 15.374837875366211 -30.719999313354485 L 15.3100004196167 -30.753000259399407 L 15 -30.802999496459954 L 14.6899995803833 -30.753000259399407 L 14.625162124633789 -30.719999313354485 L 14.41100025177002 -30.61100006103515 L 14.336000442504883 -30.535999298095696 L 14.189000129699707 -30.388999938964837 L 14.04699993133545 -30.110000610351555 L 13.998000144958496 -29.79999923706054 L 14.04699993133545 -29.489999771118157 L 14.189000129699707 -29.211000442504876 L 14.336000442504883 -29.063999176025384 L 14.41100025177002 -28.989000320434563 L 14.6899995803833 -28.847000122070305 L 15 -28.79700088500976 L 15.3100004196167 -28.847000122070305 L 15.58899974822998 -28.989000320434563 L 15.810999870300293 -29.211000442504876 L 15.95300006866455 -29.489999771118157 L 16 -29.781400680541985 M 63.4109992980957 -28.989000320434563 L 63.487998962402344 -28.949810028076165 L 63.689998626708984 -28.847000122070305 L 64 -28.79700088500976 L 64.30999755859375 -28.847000122070305 L 64.58899688720703 -28.989000320434563 L 64.81099700927734 -29.211000442504876 L 64.9530029296875 -29.489999771118157 L 65.00299835205078 -29.79999923706054 L 64.9530029296875 -30.110000610351555 L 64.81099700927734 -30.388999938964837 L 64.58899688720703 -30.61100006103515 L 64.37483978271484 -30.719999313354485 L 64.30999755859375 -30.753000259399407 L 64 -30.802999496459954 L 63.689998626708984 -30.753000259399407 L 63.625160217285156 -30.719999313354485 L 63.487998962402344 -30.650190353393548 L 63.4109992980957 -30.61100006103515 L 63.18899917602539 -30.388999938964837 L 63.047000885009766 -30.110000610351555 L 62.99800109863281 -29.79999923706054 L 63.047000885009766 -29.489999771118157 L 63.18899917602539 -29.211000442504876 L 63.4109992980957 -28.989000320434563 M 63.689998626708984 29.15299987792968 L 64 29.202999114990227 L 64.30999755859375 29.15299987792968 L 64.58899688720703 29.010999679565423 L 64.81099700927734 28.78899955749511 L 64.87055206298828 28.67200088500976 L 64.9530029296875 28.51000022888183 L 65.00299835205078 28.200000762939446 L 64.9530029296875 27.88999938964843 L 64.81099700927734 27.61100006103515 L 64.58899688720703 27.388999938964837 L 64.30999755859375 27.24699974060058 L 64 27.197999954223626 L 63.689998626708984 27.24699974060058 L 63.4109992980957 27.388999938964837 L 63.18899917602539 27.61100006103515 L 63.047000885009766 27.88999938964843 L 62.99800109863281 28.200000762939446 L 63.047000885009766 28.51000022888183 L 63.129451751708984 28.67200088500976 L 63.18899917602539 28.78899955749511 L 63.4109992980957 29.010999679565423 L 63.689998626708984 29.15299987792968 z" fill="none" stroke="rgb(255,0,0)" stroke-width="0.001mm" />
</svg>